<?xml version="1.0" encoding="UTF-8"?>
<svg width="300" height="200" viewBox="0 0 300 200" fill="none" xmlns="http://www.w3.org/2000/svg">
  <!-- Background -->
  <rect width="300" height="200" fill="#F8FAFC"/>
  
  <!-- Abstract background -->
  <circle cx="50" cy="40" r="20" fill="#C7D2FE" opacity="0.6"/>
  <circle cx="250" cy="160" r="25" fill="#FEF3C7" opacity="0.7"/>
  
  <!-- Delivery truck -->
  <g transform="translate(100, 80)">
    <!-- Truck body -->
    <rect x="0" y="20" width="80" height="40" rx="8" fill="#3B82F6"/>
    <rect x="5" y="25" width="70" height="30" rx="5" fill="#60A5FA"/>
    
    <!-- Truck cabin -->
    <rect x="80" y="30" width="30" height="30" rx="5" fill="#1E40AF"/>
    <rect x="85" y="35" width="20" height="15" rx="2" fill="#DBEAFE"/>
    
    <!-- Wheels -->
    <circle cx="20" cy="70" r="8" fill="#374151"/>
    <circle cx="20" cy="70" r="5" fill="#6B7280"/>
    <circle cx="90" cy="70" r="8" fill="#374151"/>
    <circle cx="90" cy="70" r="5" fill="#6B7280"/>
    
    <!-- Delivery packages -->
    <rect x="10" y="30" width="12" height="12" rx="2" fill="#F97316"/>
    <rect x="25" y="35" width="10" height="10" rx="2" fill="#EAB308"/>
    <rect x="40" y="32" width="15" height="8" rx="2" fill="#22C55E"/>
    <rect x="58" y="38" width="8" height="12" rx="2" fill="#EF4444"/>
  </g>
  
  <!-- Delivery path -->
  <path d="M50 120 Q150 100 250 120" stroke="#6366F1" stroke-width="3" fill="none" stroke-dasharray="8,4"/>
  
  <!-- Destination -->
  <g transform="translate(220, 100)">
    <!-- Building -->
    <rect x="0" y="0" width="40" height="50" rx="5" fill="#F3F4F6"/>
    <rect x="5" y="5" width="8" height="8" rx="2" fill="#60A5FA"/>
    <rect x="17" y="5" width="8" height="8" rx="2" fill="#60A5FA"/>
    <rect x="27" y="5" width="8" height="8" rx="2" fill="#60A5FA"/>
    <rect x="5" y="17" width="8" height="8" rx="2" fill="#60A5FA"/>
    <rect x="27" y="17" width="8" height="8" rx="2" fill="#60A5FA"/>
    
    <!-- Door -->
    <rect x="15" y="30" width="10" height="20" rx="5" fill="#8B5CF6"/>
    <circle cx="22" cy="40" r="1" fill="#FFFFFF"/>
  </g>
  
  <!-- Floating elements -->
  <circle cx="30" cy="60" r="4" fill="#EF4444" opacity="0.8"/>
  <circle cx="270" cy="50" r="6" fill="#22C55E" opacity="0.7"/>
  <rect x="40" y="160" width="8" height="8" rx="2" fill="#8B5CF6" opacity="0.6" transform="rotate(30 44 164)"/>
  
  <!-- Speed lines -->
  <g opacity="0.4">
    <path d="M80 90 L70 90" stroke="#6366F1" stroke-width="2"/>
    <path d="M75 100 L65 100" stroke="#6366F1" stroke-width="2"/>
    <path d="M85 110 L75 110" stroke="#6366F1" stroke-width="2"/>
  </g>
  
  <!-- Location pin -->
  <g transform="translate(240, 80)">
    <path d="M0 0 Q-5 -10 0 -15 Q5 -10 0 0" fill="#EF4444"/>
    <circle cx="0" cy="-10" r="3" fill="#FFFFFF"/>
  </g>
</svg>