<svg xmlns="http://www.w3.org/2000/svg" width="500" height="300" viewBox="0 0 500 300">
  <!-- Background -->
  <rect width="500" height="300" fill="#F8F9FA" opacity="0.5"/>
  
  <!-- Decorative elements -->
  <circle cx="50" cy="250" r="60" fill="#FF7A3D" opacity="0.1"/>
  <circle cx="450" cy="50" r="80" fill="#FF7A3D" opacity="0.1"/>
  
  <!-- Road -->
  <rect x="50" y="200" width="400" height="40" fill="#E0E0E0"/>
  <line x1="70" y1="220" x2="100" y2="220" stroke="white" stroke-width="4" stroke-dasharray="20,10"/>
  <line x1="130" y1="220" x2="160" y2="220" stroke="white" stroke-width="4" stroke-dasharray="20,10"/>
  <line x1="190" y1="220" x2="220" y2="220" stroke="white" stroke-width="4" stroke-dasharray="20,10"/>
  <line x1="250" y1="220" x2="280" y2="220" stroke="white" stroke-width="4" stroke-dasharray="20,10"/>
  <line x1="310" y1="220" x2="340" y2="220" stroke="white" stroke-width="4" stroke-dasharray="20,10"/>
  <line x1="370" y1="220" x2="400" y2="220" stroke="white" stroke-width="4" stroke-dasharray="20,10"/>
  <line x1="430" y1="220" x2="460" y2="220" stroke="white" stroke-width="4" stroke-dasharray="20,10"/>
  
  <!-- Delivery Vehicle -->
  <g transform="translate(150, 180)">
    <!-- Truck Body -->
    <rect x="0" y="0" width="100" height="50" rx="5" fill="#FF7A3D"/>
    <rect x="-30" y="20" width="30" height="30" rx="5" fill="#FF7A3D"/>
    <rect x="-30" y="10" width="20" height="10" rx="2" fill="#2C3E50"/>
    
    <!-- Wheels -->
    <circle cx="-15" cy="50" r="10" fill="#2C3E50"/>
    <circle cx="-15" cy="50" r="5" fill="#666"/>
    <circle cx="20" cy="50" r="10" fill="#2C3E50"/>
    <circle cx="20" cy="50" r="5" fill="#666"/>
    <circle cx="80" cy="50" r="10" fill="#2C3E50"/>
    <circle cx="80" cy="50" r="5" fill="#666"/>
    
    <!-- Truck Details -->
    <rect x="70" y="10" width="20" height="15" rx="2" fill="#2C3E50"/>
    <rect x="0" y="10" width="60" height="15" rx="2" fill="#2C3E50"/>
    
    <!-- Temperature Control Symbol -->
    <g transform="translate(30, 25)">
      <circle cx="0" cy="0" r="15" fill="white"/>
      <path d="M-5,-5 L5,-5 L5,5 L-5,5 Z" stroke="#3498DB" stroke-width="2" fill="none"/>
      <path d="M0,-5 L0,5" stroke="#3498DB" stroke-width="2"/>
      <path d="M-5,0 L5,0" stroke="#3498DB" stroke-width="2"/>
      <path d="M-8,-8 L-5,-5" stroke="#3498DB" stroke-width="1"/>
      <path d="M8,-8 L5,-5" stroke="#3498DB" stroke-width="1"/>
      <path d="M-8,8 L-5,5" stroke="#3498DB" stroke-width="1"/>
      <path d="M8,8 L5,5" stroke="#3498DB" stroke-width="1"/>
    </g>
    
    <!-- Logo -->
    <g transform="translate(85, 35)">
      <circle cx="0" cy="0" r="10" fill="white"/>
      <text x="0" y="4" font-family="Arial, sans-serif" font-size="12" font-weight="bold" fill="white" text-anchor="middle">SE</text>
    </g>
  </g>
  
  <!-- Supplier Location -->
  <g transform="translate(80, 120)">
    <!-- Building -->
    <rect x="-30" y="-40" width="60" height="40" fill="#27AE60"/>
    <rect x="-25" y="-35" width="10" height="10" fill="white" opacity="0.5"/>
    <rect x="-10" y="-35" width="10" height="10" fill="white" opacity="0.5"/>
    <rect x="5" y="-35" width="10" height="10" fill="white" opacity="0.5"/>
    <rect x="20" y="-35" width="10" height="10" fill="white" opacity="0.5"/>
    <rect x="-25" y="-20" width="10" height="10" fill="white" opacity="0.5"/>
    <rect x="-10" y="-20" width="10" height="10" fill="white" opacity="0.5"/>
    <rect x="5" y="-20" width="10" height="10" fill="white" opacity="0.5"/>
    <rect x="20" y="-20" width="10" height="10" fill="white" opacity="0.5"/>
    <rect x="-10" y="-40" width="20" height="5" fill="#1D8348"/>
    <rect x="-10" y="0" width="20" height="0" fill="#1D8348"/>
    
    <!-- Location Pin -->
    <g transform="translate(0, -60)">
      <path d="M0,0 C-15,0 -15,20 0,20 C15,20 15,0 0,0" fill="#27AE60"/>
      <path d="M0,20 L0,40" stroke="#27AE60" stroke-width="2"/>
      <circle cx="0" cy="10" r="5" fill="white"/>
    </g>
    
    <!-- Label -->
    <text x="0" y="-75" font-family="Arial, sans-serif" font-size="12" fill="white" text-anchor="middle">Supplier</text>
  </g>
  
  <!-- Vendor Location -->
  <g transform="translate(380, 120)">
    <!-- Food Cart -->
    <rect x="-25" y="-20" width="50" height="20" rx="2" fill="#2C3E50"/>
    <rect x="-20" y="-25" width="40" height="5" rx="1" fill="#2C3E50"/>
    <rect x="-20" y="-15" width="40" height="10" fill="white" opacity="0.3"/>
    <circle cx="-15" cy="0" r="5" fill="#666"/>
    <circle cx="15" cy="0" r="5" fill="#666"/>
    
    <!-- Vendor -->
    <circle cx="-35" cy="-10" r="8" fill="#2C3E50"/>
    <rect x="-39" y="-2" width="8" height="12" fill="#2C3E50"/>
    
    <!-- Location Pin -->
    <g transform="translate(0, -40)">
      <path d="M0,0 C-15,0 -15,20 0,20 C15,20 15,0 0,0" fill="#FF7A3D"/>
      <path d="M0,20 L0,40" stroke="#FF7A3D" stroke-width="2"/>
      <circle cx="0" cy="10" r="5" fill="white"/>
    </g>
    
    <!-- Label -->
    <text x="0" y="-55" font-family="Arial, sans-serif" font-size="12" fill="white" text-anchor="middle">Vendor</text>
  </g>
  
  <!-- Route Path -->
  <path d="M80,140 C150,100 250,100 380,140" stroke="#FF7A3D" stroke-width="2" stroke-dasharray="5,3" fill="none"/>
  
  <!-- Delivery Features -->
  <!-- Scheduled Delivery -->
  <g transform="translate(100, 60)">
    <circle cx="0" cy="0" r="20" fill="white" stroke="#FF7A3D" stroke-width="2"/>
    <rect x="-8" y="-8" width="16" height="16" rx="2" fill="none" stroke="#FF7A3D" stroke-width="2"/>
    <line x1="-4" y1="0" x2="4" y2="0" stroke="#FF7A3D" stroke-width="2"/>
    <line x1="0" y1="-4" x2="0" y2="4" stroke="#FF7A3D" stroke-width="2"/>
    <text x="0" y="30" font-family="Arial, sans-serif" font-size="10" fill="white" text-anchor="middle">Scheduled</text>
    <text x="0" y="42" font-family="Arial, sans-serif" font-size="10" fill="white" text-anchor="middle">Delivery</text>
  </g>
  
  <!-- Temperature Controlled -->
  <g transform="translate(250, 60)">
    <circle cx="0" cy="0" r="20" fill="white" stroke="#FF7A3D" stroke-width="2"/>
    <path d="M-5,-10 L5,-10 L5,5 L10,5 L0,15 L-10,5 L-5,5 Z" fill="#3498DB"/>
    <text x="0" y="30" font-family="Arial, sans-serif" font-size="10" fill="white" text-anchor="middle">Temperature</text>
    <text x="0" y="42" font-family="Arial, sans-serif" font-size="10" fill="white" text-anchor="middle">Controlled</text>
  </g>
  
  <!-- Real-time Tracking -->
  <g transform="translate(400, 60)">
    <circle cx="0" cy="0" r="20" fill="white" stroke="#FF7A3D" stroke-width="2"/>
    <circle cx="0" cy="0" r="10" fill="none" stroke="#FF7A3D" stroke-width="2"/>
    <circle cx="0" cy="0" r="3" fill="#FF7A3D"/>
    <path d="M10,0 L15,0 M-10,0 L-15,0 M0,10 L0,15 M0,-10 L0,-15" stroke="#FF7A3D" stroke-width="2"/>
    <text x="0" y="30" font-family="Arial, sans-serif" font-size="10" fill="white" text-anchor="middle">Real-time</text>
    <text x="0" y="42" font-family="Arial, sans-serif" font-size="10" fill="white" text-anchor="middle">Tracking</text>
  </g>
</svg>