<?xml version="1.0" encoding="UTF-8"?>
<svg width="400" height="300" viewBox="0 0 400 300" fill="none" xmlns="http://www.w3.org/2000/svg">
  <!-- Background removed for transparency -->
  
  <!-- Central group buying concept -->
  <g transform="translate(200, 150)">
    <!-- Central hub -->
    <circle cx="0" cy="0" r="40" fill="#3B82F6" opacity="0.2"/>
    <circle cx="0" cy="0" r="25" fill="#3B82F6"/>
    <rect x="-8" y="-8" width="16" height="16" rx="3" fill="#FFFFFF"/>
    <path d="M-4 -2 L0 2 L4 -2" stroke="#3B82F6" stroke-width="2" fill="none"/>
    
    <!-- Connected vendors (people) -->
    <!-- Vendor 1 -->
    <g transform="translate(-80, -60)">
      <circle cx="0" cy="0" r="15" fill="#F59E0B"/>
      <circle cx="0" cy="-5" r="8" fill="#FEF3C7"/>
      <rect x="-6" y="5" width="12" height="15" rx="6" fill="#3B82F6"/>
      <path d="M0 -60 Q-20 -30 0 0" stroke="#6366F1" stroke-width="2" fill="none" stroke-dasharray="3,3"/>
    </g>
    
    <!-- Vendor 2 -->
    <g transform="translate(80, -60)">
      <circle cx="0" cy="0" r="15" fill="#EF4444"/>
      <circle cx="0" cy="-5" r="8" fill="#FEF3C7"/>
      <rect x="-6" y="5" width="12" height="15" rx="6" fill="#22C55E"/>
      <path d="M0 -60 Q20 -30 0 0" stroke="#6366F1" stroke-width="2" fill="none" stroke-dasharray="3,3"/>
    </g>
    
    <!-- Vendor 3 -->
    <g transform="translate(-60, 80)">
      <circle cx="0" cy="0" r="15" fill="#8B5CF6"/>
      <circle cx="0" cy="-5" r="8" fill="#FEF3C7"/>
      <rect x="-6" y="5" width="12" height="15" rx="6" fill="#F97316"/>
      <path d="M0 80 Q-30 40 0 0" stroke="#6366F1" stroke-width="2" fill="none" stroke-dasharray="3,3"/>
    </g>
    
    <!-- Vendor 4 -->
    <g transform="translate(60, 80)">
      <circle cx="0" cy="0" r="15" fill="#22C55E"/>
      <circle cx="0" cy="-5" r="8" fill="#FEF3C7"/>
      <rect x="-6" y="5" width="12" height="15" rx="6" fill="#8B5CF6"/>
      <path d="M0 80 Q30 40 0 0" stroke="#6366F1" stroke-width="2" fill="none" stroke-dasharray="3,3"/>
    </g>
  </g>
  
  <!-- Bulk order visualization -->
  <g transform="translate(50, 200)">
    <rect x="0" y="0" width="100" height="60" rx="10" fill="#FFFFFF" stroke="#E5E7EB" stroke-width="2"/>
    <rect x="10" y="10" width="80" height="8" rx="4" fill="#3B82F6"/>
    
    <!-- Order items -->
    <circle cx="20" cy="30" r="6" fill="#F97316"/>
    <rect x="30" y="27" width="25" height="3" rx="1" fill="#374151"/>
    <rect x="60" y="27" width="15" height="3" rx="1" fill="#22C55E"/>
    
    <circle cx="20" cy="45" r="6" fill="#EAB308"/>
    <rect x="30" y="42" width="30" height="3" rx="1" fill="#374151"/>
    <rect x="65" y="42" width="10" height="3" rx="1" fill="#22C55E"/>
  </g>
  
  <!-- Savings indicator -->
  <g transform="translate(280, 50)">
    <rect x="0" y="0" width="80" height="40" rx="20" fill="#22C55E" opacity="0.2"/>
    <rect x="10" y="10" width="60" height="6" rx="3" fill="#22C55E"/>
    <rect x="15" y="20" width="20" height="4" rx="2" fill="#FFFFFF"/>
    <rect x="40" y="20" width="25" height="4" rx="2" fill="#FFFFFF"/>
  </g>
  
  <!-- Floating discount symbols -->
  <g transform="translate(100, 80)">
    <circle cx="0" cy="0" r="12" fill="#EF4444"/>
    <rect x="-6" y="-2" width="12" height="2" rx="1" fill="#FFFFFF"/>
    <rect x="-6" y="2" width="8" height="2" rx="1" fill="#FFFFFF"/>
  </g>
  
  <g transform="translate(320, 180)">
    <circle cx="0" cy="0" r="10" fill="#F59E0B"/>
    <path d="M-4 -4 L4 4 M4 -4 L-4 4" stroke="#FFFFFF" stroke-width="2"/>
  </g>
  
  <!-- Abstract decorative elements removed for cleaner look -->
</svg>