<?xml version="1.0" encoding="UTF-8"?>
<svg width="600" height="400" viewBox="0 0 600 400" fill="none" xmlns="http://www.w3.org/2000/svg">
  <!-- Background -->
  <rect width="600" height="400" fill="#F8FAFC"/>
  
  <!-- Abstract shapes -->
  <circle cx="500" cy="80" r="60" fill="#E0E7FF" opacity="0.6"/>
  <circle cx="450" cy="120" r="30" fill="#C7D2FE" opacity="0.8"/>
  
  <!-- Main illustration - Food delivery concept -->
  <g transform="translate(50, 50)">
    <!-- Delivery person -->
    <ellipse cx="150" cy="280" rx="40" ry="8" fill="#E5E7EB" opacity="0.3"/>
    <rect x="130" y="200" width="40" height="80" rx="20" fill="#3B82F6"/>
    <circle cx="150" cy="180" r="25" fill="#FEF3C7"/>
    <circle cx="150" cy="175" r="20" fill="#F59E0B"/>
    
    <!-- Delivery bag -->
    <rect x="170" y="190" width="30" height="40" rx="5" fill="#EF4444"/>
    <rect x="175" y="195" width="20" height="5" rx="2" fill="#FFFFFF"/>
    <rect x="175" y="205" width="15" height="3" rx="1" fill="#FFFFFF"/>
    
    <!-- Food items floating -->
    <circle cx="250" cy="120" r="15" fill="#F97316"/>
    <circle cx="280" cy="100" r="12" fill="#EAB308"/>
    <circle cx="320" cy="130" r="18" fill="#22C55E"/>
    
    <!-- Connection lines -->
    <path d="M200 200 Q250 150 300 140" stroke="#6366F1" stroke-width="3" fill="none" stroke-dasharray="5,5"/>
    <path d="M200 220 Q280 180 350 160" stroke="#8B5CF6" stroke-width="2" fill="none" stroke-dasharray="3,3"/>
    
    <!-- Vendor stall -->
    <rect x="350" y="200" width="80" height="80" rx="10" fill="#F3F4F6"/>
    <rect x="360" y="180" width="60" height="20" rx="10" fill="#EF4444"/>
    <rect x="370" y="210" width="15" height="15" rx="3" fill="#F97316"/>
    <rect x="395" y="210" width="15" height="15" rx="3" fill="#EAB308"/>
    <rect x="370" y="235" width="15" height="15" rx="3" fill="#22C55E"/>
    <rect x="395" y="235" width="15" height="15" rx="3" fill="#3B82F6"/>
    
    <!-- Abstract decorative elements -->
    <circle cx="100" cy="100" r="8" fill="#A78BFA" opacity="0.7"/>
    <circle cx="400" cy="80" r="12" fill="#34D399" opacity="0.6"/>
    <rect x="80" y="120" width="15" height="15" rx="3" fill="#F472B6" opacity="0.8" transform="rotate(45 87.5 127.5)"/>
    <rect x="420" y="110" width="12" height="12" rx="2" fill="#60A5FA" opacity="0.7" transform="rotate(30 426 116)"/>
  </g>
  
  <!-- Floating abstract elements -->
  <circle cx="80" cy="150" r="6" fill="#F59E0B" opacity="0.5"/>
  <circle cx="520" cy="200" r="8" fill="#8B5CF6" opacity="0.6"/>
  <circle cx="100" cy="350" r="4" fill="#EF4444" opacity="0.7"/>
  
  <!-- Gradient overlay -->
  <defs>
    <linearGradient id="heroGradient" x1="0%" y1="0%" x2="100%" y2="100%">
      <stop offset="0%" style="stop-color:#6366F1;stop-opacity:0.1"/>
      <stop offset="100%" style="stop-color:#8B5CF6;stop-opacity:0.05"/>
    </linearGradient>
  </defs>
  <rect width="600" height="400" fill="url(#heroGradient)"/>
</svg>