<?xml version="1.0" encoding="UTF-8"?>
<svg width="400" height="300" viewBox="0 0 400 300" fill="none" xmlns="http://www.w3.org/2000/svg">
  <!-- Dark background for contrast -->
  <rect width="400" height="300" fill="transparent"/>
  
  <!-- Glowing background elements -->
  <circle cx="80" cy="60" r="30" fill="#60A5FA" opacity="0.3"/>
  <circle cx="320" cy="240" r="35" fill="#34D399" opacity="0.3"/>
  <circle cx="350" cy="80" r="20" fill="#F472B6" opacity="0.3"/>
  
  <!-- Main login concept -->
  <g transform="translate(200, 150)">
    <!-- Login device/screen with glow -->
    <rect x="-60" y="-50" width="120" height="100" rx="15" fill="#1F2937" stroke="#60A5FA" stroke-width="2"/>
    <rect x="-50" y="-40" width="100" height="80" rx="8" fill="#374151"/>
    
    <!-- Login form elements -->
    <rect x="-40" y="-25" width="80" height="8" rx="4" fill="#60A5FA"/>
    
    <!-- Username field -->
    <rect x="-40" y="-10" width="80" height="12" rx="6" fill="#4B5563" stroke="#60A5FA" stroke-width="1"/>
    <rect x="-35" y="-7" width="30" height="3" rx="1" fill="#9CA3AF"/>
    
    <!-- Password field -->
    <rect x="-40" y="8" width="80" height="12" rx="6" fill="#4B5563" stroke="#60A5FA" stroke-width="1"/>
    <circle cx="-30" cy="14" r="1" fill="#9CA3AF"/>
    <circle cx="-25" cy="14" r="1" fill="#9CA3AF"/>
    <circle cx="-20" cy="14" r="1" fill="#9CA3AF"/>
    <circle cx="-15" cy="14" r="1" fill="#9CA3AF"/>
    
    <!-- Login button -->
    <rect x="-40" y="28" width="80" height="15" rx="7" fill="#34D399"/>
    <rect x="-20" y="32" width="20" height="3" rx="1" fill="#FFFFFF"/>
    <rect x="5" y="32" width="15" height="3" rx="1" fill="#FFFFFF"/>
    
    <!-- User avatar with glow -->
    <circle cx="0" cy="-70" r="20" fill="#F59E0B"/>
    <circle cx="0" cy="-75" r="12" fill="#FEF3C7"/>
    <rect x="-8" y="-55" width="16" height="20" rx="8" fill="#60A5FA"/>
  </g>
  
  <!-- Security elements -->
  <g transform="translate(100, 80)">
    <!-- Lock icon -->
    <rect x="0" y="10" width="20" height="15" rx="3" fill="#1F2937" stroke="#60A5FA" stroke-width="2"/>
    <path d="M5 10 Q5 5 10 5 Q15 5 15 10" stroke="#60A5FA" stroke-width="3" fill="none"/>
    <circle cx="10" cy="17" r="2" fill="#60A5FA"/>
  </g>
  
  <g transform="translate(280, 80)">
    <!-- Shield icon -->
    <path d="M0 0 Q-8 2 -10 10 Q-10 20 -8 25 Q-4 30 0 32 Q4 30 8 25 Q10 20 10 10 Q8 2 0 0" fill="#34D399"/>
    <path d="M-3 15 L0 18 L6 12" stroke="#FFFFFF" stroke-width="2" fill="none"/>
  </g>
  
  <!-- Connection indicators -->
  <g transform="translate(50, 200)">
    <!-- WiFi signal -->
    <path d="M0 20 Q-10 10 -20 20" stroke="#60A5FA" stroke-width="3" fill="none"/>
    <path d="M0 20 Q-7 13 -14 20" stroke="#60A5FA" stroke-width="3" fill="none"/>
    <path d="M0 20 Q-4 16 -8 20" stroke="#60A5FA" stroke-width="3" fill="none"/>
    <circle cx="0" cy="20" r="3" fill="#60A5FA"/>
  </g>
  
  <!-- Success indicators -->
  <g transform="translate(320, 180)">
    <circle cx="0" cy="0" r="12" fill="#34D399" opacity="0.4"/>
    <path d="M-5 0 L-2 3 L5 -4" stroke="#34D399" stroke-width="3" fill="none"/>
  </g>
  
  <!-- Bright decorative elements -->
  <circle cx="40" cy="40" r="6" fill="#A78BFA"/>
  <circle cx="360" cy="120" r="7" fill="#FB7185"/>
  <rect x="30" y="250" width="10" height="10" rx="2" fill="#FBBF24" transform="rotate(45 35 255)"/>
  <rect x="350" y="200" width="12" height="12" rx="2" fill="#34D399" transform="rotate(30 356 206)"/>
  
  <!-- Glowing data flow lines -->
  <path d="M150 150 Q100 120 80 100" stroke="#60A5FA" stroke-width="3" fill="none" stroke-dasharray="6,6" opacity="0.8"/>
  <path d="M250 150 Q300 120 320 100" stroke="#A78BFA" stroke-width="3" fill="none" stroke-dasharray="6,6" opacity="0.8"/>
  
  <!-- Additional glow effects -->
  <defs>
    <filter id="glow">
      <feGaussianBlur stdDeviation="3" result="coloredBlur"/>
      <feMerge> 
        <feMergeNode in="coloredBlur"/>
        <feMergeNode in="SourceGraphic"/>
      </feMerge>
    </filter>
  </defs>
  
  <!-- Apply glow to key elements -->
  <circle cx="200" cy="80" r="15" fill="#60A5FA" opacity="0.6" filter="url(#glow)"/>
  <circle cx="200" cy="220" r="12" fill="#34D399" opacity="0.6" filter="url(#glow)"/>
</svg>