<?xml version="1.0" encoding="UTF-8"?>
<svg width="300" height="200" viewBox="0 0 300 200" fill="none" xmlns="http://www.w3.org/2000/svg">
  <!-- Background -->
  <rect width="300" height="200" fill="#F8FAFC"/>
  
  <!-- Abstract background -->
  <circle cx="60" cy="50" r="25" fill="#E0E7FF" opacity="0.6"/>
  <circle cx="240" cy="150" r="20" fill="#FEF3C7" opacity="0.7"/>
  
  <!-- Shopping cart -->
  <g transform="translate(80, 70)">
    <!-- Cart body -->
    <rect x="0" y="20" width="60" height="40" rx="5" fill="#FFFFFF" stroke="#E5E7EB" stroke-width="2"/>
    <rect x="5" y="25" width="50" height="30" rx="3" fill="#F8FAFC"/>
    
    <!-- Cart handle -->
    <path d="M-10 20 Q-15 15 -10 10 L10 10" stroke="#374151" stroke-width="3" fill="none"/>
    
    <!-- Cart wheels -->
    <circle cx="15" cy="70" r="6" fill="#6366F1"/>
    <circle cx="45" cy="70" r="6" fill="#6366F1"/>
    
    <!-- Items in cart -->
    <circle cx="15" cy="35" r="6" fill="#F97316"/>
    <circle cx="35" cy="30" r="5" fill="#EAB308"/>
    <rect x="25" y="40" width="8" height="8" rx="2" fill="#22C55E"/>
    <rect x="40" y="38" width="6" height="6" rx="1" fill="#EF4444"/>
  </g>
  
  <!-- Order summary -->
  <g transform="translate(160, 50)">
    <rect x="0" y="0" width="100" height="120" rx="10" fill="#FFFFFF" stroke="#E5E7EB" stroke-width="2"/>
    
    <!-- Header -->
    <rect x="10" y="10" width="80" height="8" rx="4" fill="#3B82F6"/>
    
    <!-- Order items -->
    <rect x="10" y="30" width="60" height="4" rx="2" fill="#374151"/>
    <rect x="75" y="30" width="15" height="4" rx="2" fill="#9CA3AF"/>
    
    <rect x="10" y="40" width="50" height="4" rx="2" fill="#374151"/>
    <rect x="75" y="40" width="15" height="4" rx="2" fill="#9CA3AF"/>
    
    <rect x="10" y="50" width="55" height="4" rx="2" fill="#374151"/>
    <rect x="75" y="50" width="15" height="4" rx="2" fill="#9CA3AF"/>
    
    <!-- Total -->
    <rect x="10" y="70" width="80" height="2" rx="1" fill="#E5E7EB"/>
    <rect x="10" y="80" width="40" height="6" rx="3" fill="#374151"/>
    <rect x="60" y="80" width="30" height="6" rx="3" fill="#EF4444"/>
    
    <!-- Order button -->
    <rect x="10" y="95" width="80" height="15" rx="7" fill="#22C55E"/>
    <rect x="20" y="99" width="20" height="3" rx="1" fill="#FFFFFF"/>
    <rect x="45" y="99" width="15" height="3" rx="1" fill="#FFFFFF"/>
  </g>
  
  <!-- Floating elements -->
  <circle cx="40" cy="30" r="4" fill="#8B5CF6" opacity="0.8"/>
  <circle cx="270" cy="40" r="5" fill="#F59E0B" opacity="0.7"/>
  <rect x="30" y="160" width="8" height="8" rx="2" fill="#EF4444" opacity="0.6" transform="rotate(45 34 164)"/>
  
  <!-- Success indicators -->
  <g transform="translate(200, 30)">
    <circle cx="0" cy="0" r="8" fill="#22C55E" opacity="0.3"/>
    <path d="M-3 0 L0 2 L3 -2" stroke="#22C55E" stroke-width="1.5" fill="none"/>
  </g>
</svg>