<?xml version="1.0" encoding="UTF-8"?>
<svg width="400" height="300" viewBox="0 0 400 300" fill="none" xmlns="http://www.w3.org/2000/svg">
  <!-- Background -->
  <rect width="400" height="300" fill="#F8FAFC"/>
  
  <!-- Abstract background -->
  <circle cx="80" cy="60" r="25" fill="#E0E7FF" opacity="0.6"/>
  <circle cx="320" cy="240" r="30" fill="#FEF3C7" opacity="0.7"/>
  <circle cx="350" cy="80" r="20" fill="#DCFCE7" opacity="0.8"/>
  
  <!-- Main quality control concept -->
  <g transform="translate(200, 150)">
    <!-- Central quality shield -->
    <path d="M0 -40 Q-20 -35 -25 -15 Q-25 5 -20 20 Q-10 35 0 40 Q10 35 20 20 Q25 5 25 -15 Q20 -35 0 -40" fill="#22C55E"/>
    <path d="M0 -30 Q-15 -25 -18 -10 Q-18 5 -15 15 Q-8 25 0 30 Q8 25 15 15 Q18 5 18 -10 Q15 -25 0 -30" fill="#FFFFFF"/>
    
    <!-- Checkmark -->
    <path d="M-8 0 L-3 5 L8 -8" stroke="#22C55E" stroke-width="4" fill="none"/>
    
    <!-- Quality testing equipment -->
    <g transform="translate(-80, 0)">
      <!-- Microscope -->
      <rect x="-5" y="-10" width="10" height="20" rx="2" fill="#374151"/>
      <circle cx="0" cy="-15" r="6" fill="#60A5FA"/>
      <circle cx="0" cy="-15" r="3" fill="#FFFFFF"/>
      <rect x="-8" y="10" width="16" height="4" rx="2" fill="#6B7280"/>
    </g>
    
    <g transform="translate(80, 0)">
      <!-- Testing kit -->
      <rect x="-10" y="-15" width="20" height="30" rx="5" fill="#FFFFFF" stroke="#E5E7EB" stroke-width="2"/>
      <rect x="-5" y="-10" width="10" height="4" rx="2" fill="#EF4444"/>
      <rect x="-5" y="-3" width="10" height="4" rx="2" fill="#EAB308"/>
      <rect x="-5" y="4" width="10" height="4" rx="2" fill="#22C55E"/>
    </g>
  </g>
  
  <!-- Quality ratings -->
  <g transform="translate(60, 80)">
    <rect x="0" y="0" width="100" height="60" rx="10" fill="#FFFFFF" stroke="#E5E7EB" stroke-width="2"/>
    <rect x="10" y="10" width="80" height="6" rx="3" fill="#3B82F6"/>
    
    <!-- Star ratings -->
    <g transform="translate(15, 25)">
      <path d="M0 0 L2 4 L6 4 L3 7 L4 11 L0 9 L-4 11 L-3 7 L-6 4 L-2 4 Z" fill="#F59E0B"/>
      <path d="M12 0 L14 4 L18 4 L15 7 L16 11 L12 9 L8 11 L9 7 L6 4 L10 4 Z" fill="#F59E0B"/>
      <path d="M24 0 L26 4 L30 4 L27 7 L28 11 L24 9 L20 11 L21 7 L18 4 L22 4 Z" fill="#F59E0B"/>
      <path d="M36 0 L38 4 L42 4 L39 7 L40 11 L36 9 L32 11 L33 7 L30 4 L34 4 Z" fill="#F59E0B"/>
      <path d="M48 0 L50 4 L54 4 L51 7 L52 11 L48 9 L44 11 L45 7 L42 4 L46 4 Z" fill="#E5E7EB"/>
    </g>
    
    <!-- Rating text -->
    <rect x="15" y="40" width="30" height="4" rx="2" fill="#374151"/>
    <rect x="50" y="40" width="20" height="4" rx="2" fill="#22C55E"/>
  </g>
  
  <!-- Certification badges -->
  <g transform="translate(280, 80)">
    <!-- FSSAI badge -->
    <circle cx="0" cy="0" r="25" fill="#22C55E" opacity="0.2"/>
    <circle cx="0" cy="0" r="18" fill="#22C55E"/>
    <rect x="-8" y="-8" width="16" height="6" rx="3" fill="#FFFFFF"/>
    <rect x="-6" y="0" width="12" height="3" rx="1" fill="#FFFFFF"/>
    <rect x="-4" y="5" width="8" height="3" rx="1" fill="#FFFFFF"/>
  </g>
  
  <!-- Feedback system -->
  <g transform="translate(50, 200)">
    <rect x="0" y="0" width="120" height="50" rx="8" fill="#FFFFFF" stroke="#E5E7EB" stroke-width="2"/>
    
    <!-- Feedback items -->
    <circle cx="15" cy="15" r="6" fill="#F59E0B"/>
    <rect x="25" y="12" width="40" height="3" rx="1" fill="#374151"/>
    <rect x="70" y="12" width="20" height="3" rx="1" fill="#22C55E"/>
    
    <circle cx="15" cy="30" r="6" fill="#3B82F6"/>
    <rect x="25" y="27" width="35" height="3" rx="1" fill="#374151"/>
    <rect x="65" y="27" width="25" height="3" rx="1" fill="#22C55E"/>
  </g>
  
  <!-- Blockchain traceability -->
  <g transform="translate(250, 200)">
    <!-- Blockchain blocks -->
    <rect x="0" y="0" width="20" height="20" rx="3" fill="#8B5CF6"/>
    <rect x="25" y="0" width="20" height="20" rx="3" fill="#6366F1"/>
    <rect x="50" y="0" width="20" height="20" rx="3" fill="#3B82F6"/>
    
    <!-- Connection lines -->
    <path d="M20 10 L25 10" stroke="#9CA3AF" stroke-width="2"/>
    <path d="M45 10 L50 10" stroke="#9CA3AF" stroke-width="2"/>
    
    <!-- Block content -->
    <rect x="5" y="5" width="10" height="2" rx="1" fill="#FFFFFF"/>
    <rect x="5" y="9" width="8" height="2" rx="1" fill="#FFFFFF"/>
    <rect x="5" y="13" width="6" height="2" rx="1" fill="#FFFFFF"/>
    
    <rect x="30" y="5" width="10" height="2" rx="1" fill="#FFFFFF"/>
    <rect x="30" y="9" width="8" height="2" rx="1" fill="#FFFFFF"/>
    <rect x="30" y="13" width="6" height="2" rx="1" fill="#FFFFFF"/>
    
    <rect x="55" y="5" width="10" height="2" rx="1" fill="#FFFFFF"/>
    <rect x="55" y="9" width="8" height="2" rx="1" fill="#FFFFFF"/>
    <rect x="55" y="13" width="6" height="2" rx="1" fill="#FFFFFF"/>
  </g>
  
  <!-- Floating quality indicators -->
  <circle cx="40" cy="40" r="5" fill="#22C55E" opacity="0.8"/>
  <circle cx="360" cy="120" r="6" fill="#F59E0B" opacity="0.7"/>
  <rect x="30" y="120" width="8" height="8" rx="2" fill="#EF4444" opacity="0.6" transform="rotate(45 34 124)"/>
  <rect x="350" y="180" width="10" height="10" rx="2" fill="#8B5CF6" opacity="0.7" transform="rotate(30 355 185)"/>
</svg>