<?xml version="1.0" encoding="UTF-8"?>
<svg width="300" height="200" viewBox="0 0 300 200" fill="none" xmlns="http://www.w3.org/2000/svg">
  <!-- Background -->
  <rect width="300" height="200" fill="#F8FAFC"/>
  
  <!-- Abstract background -->
  <circle cx="50" cy="40" r="20" fill="#C7D2FE" opacity="0.6"/>
  <circle cx="250" cy="160" r="25" fill="#FEF3C7" opacity="0.7"/>
  
  <!-- Main search interface -->
  <g transform="translate(50, 60)">
    <!-- Search bar -->
    <rect x="0" y="0" width="200" height="30" rx="15" fill="#FFFFFF" stroke="#E5E7EB" stroke-width="2"/>
    <circle cx="175" cy="15" r="8" fill="#6366F1"/>
    <path d="M170 10 L180 20" stroke="#FFFFFF" stroke-width="2"/>
    <path d="M172 18 L178 12" stroke="#FFFFFF" stroke-width="2"/>
    
    <!-- Search results -->
    <rect x="0" y="45" width="200" height="80" rx="10" fill="#FFFFFF" stroke="#E5E7EB" stroke-width="1"/>
    
    <!-- Result items -->
    <g transform="translate(15, 60)">
      <circle cx="10" cy="10" r="8" fill="#F97316"/>
      <rect x="25" y="5" width="60" height="4" rx="2" fill="#374151"/>
      <rect x="25" y="12" width="40" height="3" rx="1" fill="#9CA3AF"/>
      
      <circle cx="10" cy="35" r="8" fill="#EAB308"/>
      <rect x="25" y="30" width="70" height="4" rx="2" fill="#374151"/>
      <rect x="25" y="37" width="50" height="3" rx="1" fill="#9CA3AF"/>
      
      <circle cx="10" cy="60" r="8" fill="#22C55E"/>
      <rect x="25" y="55" width="55" height="4" rx="2" fill="#374151"/>
      <rect x="25" y="62" width="35" height="3" rx="1" fill="#9CA3AF"/>
    </g>
    
    <!-- Filter icons -->
    <rect x="150" y="55" width="15" height="15" rx="3" fill="#8B5CF6" opacity="0.8"/>
    <rect x="170" y="55" width="15" height="15" rx="3" fill="#3B82F6" opacity="0.8"/>
  </g>
  
  <!-- Floating search elements -->
  <circle cx="30" cy="120" r="5" fill="#EF4444" opacity="0.7"/>
  <circle cx="270" cy="80" r="6" fill="#8B5CF6" opacity="0.6"/>
  <rect x="20" y="160" width="10" height="10" rx="2" fill="#F59E0B" opacity="0.8" transform="rotate(30 25 165)"/>
  
  <!-- Magnifying glass decoration -->
  <g transform="translate(220, 30)">
    <circle cx="0" cy="0" r="15" fill="none" stroke="#6366F1" stroke-width="3" opacity="0.4"/>
    <path d="M12 12 L20 20" stroke="#6366F1" stroke-width="3" opacity="0.4"/>
  </g>
</svg>